<svg xmlns="http://www.w3.org/2000/svg" width="1000" height="1273" viewBox="0 0 1000 1273" role="img"><defs><radialGradient id="surface" cx="28%" cy="18%" r="92%"><stop offset="0" stop-color="#FFFFFF"/><stop offset=".62" stop-color="#F5FAFF"/><stop offset="1" stop-color="#E4F2FF"/></radialGradient><linearGradient id="roc-gradient" x1="0" y1="1" x2="1" y2="0"><stop offset="0" stop-color="#173D72"/><stop offset=".55" stop-color="#4B45C6"/><stop offset="1" stop-color="#2CD5DB"/></linearGradient><linearGradient id="word-gradient" x1="0" x2="1"><stop offset="0" stop-color="#238AD2"/><stop offset=".48" stop-color="#2CD5DB"/><stop offset="1" stop-color="#8559E8"/></linearGradient><linearGradient id="hex-edge" x1="0" y1="0" x2="1" y2="1"><stop offset="0" stop-color="#173D72"/><stop offset=".52" stop-color="#4B45C6"/><stop offset="1" stop-color="#2CD5DB"/></linearGradient><linearGradient id="hex-surface" x1="0" y1="0" x2="1" y2="1"><stop offset="0" stop-color="#FFFFFF"/><stop offset=".68" stop-color="#F3F8FF"/><stop offset="1" stop-color="#E7F4FF"/></linearGradient><filter id="panel-shadow" x="-20%" y="-20%" width="140%" height="155%"><feDropShadow dx="0" dy="18" stdDeviation="20" flood-color="#102A56" flood-opacity=".18"/></filter><filter id="roc-glow" x="-30%" y="-30%" width="160%" height="160%"><feGaussianBlur stdDeviation="15" result="blur"/><feFlood flood-color="#2CD5DB" flood-opacity=".42"/><feComposite in2="blur" operator="in"/><feMerge><feMergeNode/><feMergeNode in="SourceGraphic"/></feMerge></filter><filter id="hex-shadow" x="-20%" y="-20%" width="140%" height="150%"><feDropShadow dx="0" dy="22" stdDeviation="18" flood-color="#102A56" flood-opacity=".22"/></filter></defs><title>aucmat logo</title><rect width="1000" height="1273" fill="#FFFFFF"/><g transform="translate(90 20) scale(.82)"><rect width="1000" height="1000" rx="170" fill="url(#surface)"/><circle cx="790" cy="174" r="120" fill="#2CD5DB" opacity=".11"/><circle cx="156" cy="796" r="150" fill="#8559E8" opacity=".10"/><path d="M 735 90 C 835 112 900 188 920 284" fill="none" stroke="#FFFFFF" stroke-opacity=".72" stroke-width="18" stroke-linecap="round"/><g filter="url(#panel-shadow)"><rect x="128" y="128" width="744" height="744" rx="82" fill="#FFFFFF" fill-opacity=".80" stroke="#FFFFFF" stroke-width="6"/><rect x="180" y="180" width="112" height="112" rx="22" fill="#8559E8" fill-opacity="0.92" stroke="#FFFFFF" stroke-opacity=".72" stroke-width="7"/><rect x="312" y="180" width="112" height="112" rx="22" fill="#238AD2" fill-opacity="0.98" stroke="#FFFFFF" stroke-opacity=".72" stroke-width="7"/><rect x="444" y="180" width="112" height="112" rx="22" fill="#2CD5DB" fill-opacity="0.86" stroke="#FFFFFF" stroke-opacity=".72" stroke-width="7"/><rect x="576" y="180" width="112" height="112" rx="22" fill="#25B88A" fill-opacity="0.92" stroke="#FFFFFF" stroke-opacity=".72" stroke-width="7"/><rect x="708" y="180" width="112" height="112" rx="22" fill="#F6C84A" fill-opacity="0.98" stroke="#FFFFFF" stroke-opacity=".72" stroke-width="7"/><rect x="180" y="312" width="112" height="112" rx="22" fill="#238AD2" fill-opacity="0.86" stroke="#FFFFFF" stroke-opacity=".72" stroke-width="7"/><rect x="312" y="312" width="112" height="112" rx="22" fill="#2CD5DB" fill-opacity="0.92" stroke="#FFFFFF" stroke-opacity=".72" stroke-width="7"/><rect x="444" y="312" width="112" height="112" rx="22" fill="#25B88A" fill-opacity="0.98" stroke="#FFFFFF" stroke-opacity=".72" stroke-width="7"/><rect x="576" y="312" width="112" height="112" rx="22" fill="#F6C84A" fill-opacity="0.86" stroke="#FFFFFF" stroke-opacity=".72" stroke-width="7"/><rect x="708" y="312" width="112" height="112" rx="22" fill="#F58A35" fill-opacity="0.92" stroke="#FFFFFF" stroke-opacity=".72" stroke-width="7"/><rect x="180" y="444" width="112" height="112" rx="22" fill="#2CD5DB" fill-opacity="0.98" stroke="#FFFFFF" stroke-opacity=".72" stroke-width="7"/><rect x="312" y="444" width="112" height="112" rx="22" fill="#25B88A" fill-opacity="0.86" stroke="#FFFFFF" stroke-opacity=".72" stroke-width="7"/><rect x="444" y="444" width="112" height="112" rx="22" fill="#F6C84A" fill-opacity="0.92" stroke="#FFFFFF" stroke-opacity=".72" stroke-width="7"/><rect x="576" y="444" width="112" height="112" rx="22" fill="#F58A35" fill-opacity="0.98" stroke="#FFFFFF" stroke-opacity=".72" stroke-width="7"/><rect x="708" y="444" width="112" height="112" rx="22" fill="#EF5D68" fill-opacity="0.86" stroke="#FFFFFF" stroke-opacity=".72" stroke-width="7"/><rect x="180" y="576" width="112" height="112" rx="22" fill="#25B88A" fill-opacity="0.92" stroke="#FFFFFF" stroke-opacity=".72" stroke-width="7"/><rect x="312" y="576" width="112" height="112" rx="22" fill="#F6C84A" fill-opacity="0.98" stroke="#FFFFFF" stroke-opacity=".72" stroke-width="7"/><rect x="444" y="576" width="112" height="112" rx="22" fill="#F58A35" fill-opacity="0.86" stroke="#FFFFFF" stroke-opacity=".72" stroke-width="7"/><rect x="576" y="576" width="112" height="112" rx="22" fill="#EF5D68" fill-opacity="0.92" stroke="#FFFFFF" stroke-opacity=".72" stroke-width="7"/><rect x="708" y="576" width="112" height="112" rx="22" fill="#8559E8" fill-opacity="0.98" stroke="#FFFFFF" stroke-opacity=".72" stroke-width="7"/><rect x="180" y="708" width="112" height="112" rx="22" fill="#F6C84A" fill-opacity="0.86" stroke="#FFFFFF" stroke-opacity=".72" stroke-width="7"/><rect x="312" y="708" width="112" height="112" rx="22" fill="#F58A35" fill-opacity="0.92" stroke="#FFFFFF" stroke-opacity=".72" stroke-width="7"/><rect x="444" y="708" width="112" height="112" rx="22" fill="#EF5D68" fill-opacity="0.98" stroke="#FFFFFF" stroke-opacity=".72" stroke-width="7"/><rect x="576" y="708" width="112" height="112" rx="22" fill="#8559E8" fill-opacity="0.86" stroke="#FFFFFF" stroke-opacity=".72" stroke-width="7"/><rect x="708" y="708" width="112" height="112" rx="22" fill="#238AD2" fill-opacity="0.92" stroke="#FFFFFF" stroke-opacity=".72" stroke-width="7"/><path d="M 168 806 C 205 640 262 468 372 340 C 520 190 690 160 836 146 L 836 836 L 168 836 Z" fill="#173D72" opacity=".13"/><path d="M 168 806 C 205 640 262 468 372 340 C 520 190 690 160 836 146" fill="none" stroke="#FFFFFF" stroke-width="62" stroke-linecap="round" stroke-linejoin="round"/><path d="M 168 806 C 205 640 262 468 372 340 C 520 190 690 160 836 146" fill="none" stroke="#2CD5DB" stroke-opacity=".52" stroke-width="48" stroke-linecap="round" stroke-linejoin="round" filter="url(#roc-glow)"/><path d="M 168 806 C 205 640 262 468 372 340 C 520 190 690 160 836 146" fill="none" stroke="url(#roc-gradient)" stroke-width="32" stroke-linecap="round" stroke-linejoin="round"/><circle cx="208" cy="650" r="23" fill="#FFFFFF" stroke="#173D72" stroke-width="9"/><circle cx="294" cy="444" r="23" fill="#FFFFFF" stroke="#173D72" stroke-width="9"/><circle cx="480" cy="260" r="23" fill="#FFFFFF" stroke="#173D72" stroke-width="9"/><circle cx="704" cy="176" r="23" fill="#FFFFFF" stroke="#173D72" stroke-width="9"/></g></g><text x="500" y="1024" text-anchor="middle" font-family="Arial, sans-serif" font-size="154" font-weight="800" letter-spacing="-9"><tspan fill="#102A56">auc</tspan><tspan fill="url(#word-gradient)">mat</tspan></text><rect x="392" y="1060" width="216" height="10" rx="5" fill="url(#word-gradient)"/><text x="500" y="1113" text-anchor="middle" font-family="Arial, sans-serif" font-size="34" font-weight="600" letter-spacing="2.2" fill="#58718F">ROC analysis for biomarker matrices</text></svg>